Coordinates
version=1
nRows=8
nColumns=42
inDegrees=yes

Units are S.I. units (second, meters, Newtons, ...)
If the header above contains a line with 'inDegrees', this indicates whether rotational values are in degrees (yes) or radians (no).

endheader
time	pelvis_tilt	pelvis_list	pelvis_rotation	pelvis_tx	pelvis_ty	pelvis_tz	hip_flexion_r	hip_adduction_r	hip_rotation_r	knee_angle_r	knee_adduction_r	knee_angle_r_beta	ankle_angle_r	subtalar_angle_r	mtp_angle_r	hip_flexion_l	hip_adduction_l	hip_rotation_l	knee_angle_l	knee_adduction_l	knee_angle_l_beta	ankle_angle_l	subtalar_angle_l	mtp_angle_l	lumbar_extension	lumbar_bending	lumbar_rotation	arm_flex_r	arm_add_r	arm_rot_r	elbow_flex_r	pro_sup_r	wrist_flex_r	wrist_dev_r	arm_flex_l	arm_add_l	arm_rot_l	elbow_flex_l	pro_sup_l	wrist_flex_l	wrist_dev_l
      1.98000000	     15.99684630	     -1.72124059	     -1.78746010	      1.00886403	      0.86520077	     -0.19809505	     -0.96677703	      0.21093503	     -6.18674205	     61.22516516	     -5.76985027	      1.06858072	     13.52006855	    -15.49294458	     -7.50078430	    -16.24157577	     -0.87497416	     -4.05432160	      7.14174458	      6.61071872	      0.12464696	     15.13945087	     -1.99227872	     -7.50078430	    -30.02990047	      0.79284488	      3.87330098	      2.77286391	     -7.22379840	     -2.47315979	     29.75210663	     90.00000001	      0.00000000	      0.00000000	     10.47722116	     -6.13365230	     -7.05086414	     30.64144389	     90.00000001	      0.00000000	      0.00000000
      1.99000000	     15.96615993	     -1.94954439	     -1.36973105	      1.01897207	      0.86531097	     -0.19918788	      0.36049224	      0.64402851	     -5.71983663	     59.92120301	     -4.91874369	      1.04582228	     14.57894953	    -15.91488220	     -7.50076392	    -17.41213397	     -1.17601925	     -3.86923142	      6.16808405	      6.71986090	      0.10765338	     15.68124441	     -0.83068378	     -7.50076392	    -30.03889288	      1.23843683	      3.55310755	      2.01240292	     -7.12795098	     -3.00721845	     29.22062720	     90.00000001	      0.00000000	      0.00000000	     11.56654982	     -6.49557867	     -6.31482045	     31.65227779	     90.00000001	      0.00000000	      0.00000000
      2.00000000	     15.88423875	     -2.11484351	     -0.92164289	      1.02916803	      0.86516132	     -0.20041399	      1.65643027	      0.93700307	     -5.35911611	     58.31333509	     -4.06368710	      1.01775970	     15.22879006	    -16.20914669	     -7.50074414	    -18.40934645	     -1.39165148	     -4.01744112	      5.45133544	      6.72179798	      0.09514375	     16.08701948	      0.04543221	     -7.50074414	    -29.97150992	      1.65180009	      3.21987614	      1.11133465	     -7.04013930	     -3.57195759	     28.93685656	     90.00000001	      0.00000000	      0.00000000	     12.61319894	     -6.81740334	     -5.52628517	     32.72355896	     90.00000001	      0.00000000	      0.00000000
      2.01000000	     15.95174945	     -2.41413354	     -0.45328087	      1.03945264	      0.86504517	     -0.20132889	      2.60371811	      1.42432195	     -4.87057849	     56.23638033	     -3.14307050	      0.98151000	     15.30588639	    -16.69373182	     -7.50069914	    -19.59449791	     -1.86588351	     -4.29023781	      4.74059003	      6.90104988	      0.08273890	     16.43830154	      0.91087139	     -7.50069914	    -30.06340899	      2.16748916	      2.99252648	      0.19448359	     -6.84482532	     -4.72630745	     28.79392741	     90.00000001	      0.00000000	      0.00000000	     13.56264651	     -7.35367128	     -3.76170083	     34.06351781	     90.00000001	      0.00000000	      0.00000000
      2.02000000	     15.82505677	     -2.43507862	     -0.01968663	      1.04959674	      0.86439397	     -0.20246665	      3.79815632	      1.47324387	     -4.52789879	     54.14049712	     -2.25988135	      0.94492993	     15.79458503	    -16.77544167	     -7.50067717	    -20.48168186	     -1.95713232	     -4.35804171	      4.12744961	      6.92681076	      0.07203759	     16.91610267	      1.85490339	     -7.50067717	    -29.94168419	      2.41391349	      2.61889521	     -0.72352951	     -6.75932730	     -5.11142467	     28.64862722	     90.00000001	      0.00000000	      0.00000000	     14.62930093	     -7.63415471	     -3.25077577	     35.13803411	     90.00000001	      0.00000000	      0.00000000
      2.03000000	     15.79782647	     -2.54480883	      0.38373359	      1.05984622	      0.86368533	     -0.20335766	      4.73171347	      1.65315834	     -4.24463626	     51.66745439	     -1.49275216	      0.90176720	     15.94946888	    -16.89564615	     -7.50065394	    -21.49421670	     -2.20491039	     -4.59198451	      3.54928657	      7.06085361	      0.06194674	     17.34241269	      2.77088141	     -7.50065394	    -29.91550439	      2.71145612	      2.34540345	     -1.65049063	     -6.66146544	     -5.60401215	     28.60900554	     90.00000001	      0.00000000	      0.00000000	     15.66188382	     -7.95368913	     -2.51347966	     36.29968288	     90.00000001	      0.00000000	      0.00000000
      2.04000000	     15.74995053	     -2.63242732	      0.76992182	      1.07002133	      0.86280703	     -0.20414328	      5.60451642	      1.80945842	     -4.11697986	     48.95204079	     -0.89486967	      0.85437429	     16.01380342	    -16.92017558	     -7.50063049	    -22.42426260	     -2.43394098	     -4.87595909	      3.09199039	      7.17714152	      0.05396541	     17.80794673	      3.68241594	     -7.50063049	    -29.87372010	      2.96874278	      2.10191813	     -2.56669955	     -6.55608113	     -6.08463151	     28.60158037	     90.00000001	      0.00000000	      0.00000000	     16.69508485	     -8.26680732	     -1.74992587	     37.47127045	     90.00000001	      0.00000000	      0.00000000
      2.05000000	     15.67309384	     -2.63187574	      1.10847187	      1.08018435	      0.86170145	     -0.20487773	      6.44750440	      1.83987640	     -4.13480035	     46.09813056	     -0.41676623	      0.80456416	     16.03455381	    -16.86196579	     -7.50061134	    -23.29991429	     -2.53064840	     -5.13390483	      2.68440753	      7.22716790	      0.04685175	     18.30805693	      4.55230570	     -7.50061134	    -29.80326385	      3.10912603	      1.86759566	     -3.43912543	     -6.46686179	     -6.45905561	     28.58232746	     90.00000001	      0.00000000	      0.00000000	     17.75137492	     -8.51356175	     -1.14261536	     38.58320969	     90.00000001	      0.00000000	      0.00000000
